# xmcd
# 
# Track frame offsets:
#     150
#     13347
#     25478
#     36926
#     49463
#     61859
#     76328
#     88113
#     101019
#     108140
#     123914
#     137068
# 
# Disc length: 1948
# 
# Revision: 2
# Processed by: cddbd v1.5.2PL0 Copyright (c) Steve Scherf et al.
# Submitted via: BonkEnc v1.0
# 
DISCID=9f079a0c
DTITLE=Various Artist - Blues In The Night -- A Collection Of Smooth Melodies
DYEAR=2001
DGENRE=
TTITLE0=Bobby Darin - Hello, Young Lovers
TTITLE1=June Christy - They Can't Take That Away From Me
TTITLE2=Nat King Cole - Lover, Come Back To Me!
TTITLE3=Peggy Lee - Cheek To Cheek
TTITLE4=Dean Martin - All I Do Is Dream Of You
TTITLE5=Keely Smith - Stormy Weather
TTITLE6=Mel Torme - Don't Let That Moon Get Away
TTITLE7=Lena Horne - Singin' In The Rain
TTITLE8=Count Basie and Tony Bennett - Strike Up The Band
TTITLE9=Dinah Shore - Blues In The Night
TTITLE10=Lou Rawls - Don't Explain
TTITLE11=Les Brown And His Band Of Renown - That Certain Feeling
EXTD=
EXTT0=
EXTT1=
EXTT2=
EXTT3=
EXTT4=
EXTT5=
EXTT6=
EXTT7=
EXTT8=
EXTT9=
EXTT10=
EXTT11=
PLAYORDER=
